
<svg xmlns="http://www.w3.org/2000/svg" version="1.1" xmlns:xlink="http://www.w3.org/1999/xlink" preserveAspectRatio="none" x="0px" y="0px" width="450px" height="400px" viewBox="0 0 450 400">
<defs>
<radialGradient id="Gradient_1" gradientUnits="userSpaceOnUse" cx="0" cy="0" r="38.900000000000006" fx="0" fy="0" gradientTransform="matrix( 0.9999999999999999, 0, 0, -1.0690874035989717, 71.85,82.45) " spreadMethod="pad">
<stop  offset="0.39215686274509803%" stop-color="#74F852"/>

<stop  offset="7.0588235294117645%" stop-color="#75FB4C"/>

<stop  offset="57.254901960784316%" stop-color="#6AE64F" stop-opacity="0.4980392156862745"/>

<stop  offset="68.62745098039215%" stop-color="#79E37C" stop-opacity="0.3254901960784314"/>

<stop  offset="79.6078431372549%" stop-color="#98E1AD" stop-opacity="0.1843137254901961"/>

<stop  offset="88.62745098039215%" stop-color="#B5E0D2" stop-opacity="0.08235294117647059"/>

<stop  offset="95.68627450980392%" stop-color="#C8E0E9" stop-opacity="0.0196078431372549"/>

<stop  offset="100%" stop-color="#D0DFF2" stop-opacity="0"/>
</radialGradient>

<filter id="Filter_1" x="-20%" y="-20%" width="140%" height="140%" color-interpolation-filters="sRGB">
<feColorMatrix in="SourceGraphic" type="matrix" values="1 0 0 0 0 0 1 0 0 0 0 0 1 0 0 0 0 0 0.24 0" result="result1"/>
</filter>

<filter id="Filter_2" x="-20%" y="-20%" width="140%" height="140%" color-interpolation-filters="sRGB">
<feColorMatrix in="SourceGraphic" type="matrix" values="1 0 0 0 0 0 1 0 0 0 0 0 1 0 0 0 0 0 0.81 0" result="result1"/>
</filter>

<filter id="Filter_3" x="-20%" y="-20%" width="140%" height="140%" color-interpolation-filters="sRGB">
<feColorMatrix in="SourceGraphic" type="matrix" values="1 0 0 0 0 0 1 0 0 0 0 0 1 0 0 0 0 0 0.27 0" result="result1"/>
</filter>

<filter id="Filter_4" x="-20%" y="-20%" width="140%" height="140%" color-interpolation-filters="sRGB">
<feColorMatrix in="SourceGraphic" type="matrix" values="1 0 0 0 0 0 1 0 0 0 0 0 1 0 0 0 0 0 0.34 0" result="result1"/>
</filter>

<g id="Mask_FlashAICB_1_Layer_1__Clip_Group__0_2_MASK_0_FILL">
<path fill="#FFFFFF" stroke="none" d="
M 153 86
L 153 0 0 0 0 86 153 86 Z"/>
</g>

<g id="FlashAICB_1_Layer_1__Clip_Group__0_Layer2_0_FILL">
<path fill="url(#Gradient_1)" stroke="none" d="
M 110.75 82.45
Q 110.75 65.25 99.35 53.05 87.95 40.85 71.85 40.85 55.75 40.85 44.35 53.05 32.95 65.25 32.95 82.45 32.95 99.65 44.35 111.85 55.75 124.05 71.85 124.05 87.95 124.05 99.35 111.85 110.75 99.65 110.75 82.45 Z"/>
</g>

<g id="FlashAICB_Layer_1__Path__1_0_Layer0_0_FILL">
<path fill="#1801EA" stroke="none" d="
M 20.45 0
L 0 0 7 3 20.45 0 Z"/>
</g>

<g id="FlashAICB_Layer_1__Path__0_Layer0_0_FILL">
<path fill="#1801EA" stroke="none" d="
M 0.95 2.6
Q 1.6 4.25 1.85 5.25 3.5 6.35 5.95 5.8 6.9 5.6 7.15 5.45
L 3.15 0 0 0
Q 0.25 0.95 0.95 2.6 Z"/>
</g>

<g id="Layer0_0_MEMBER_0_MEMBER_0_MEMBER_0_MEMBER_0_FILL">
<path fill="#E5E5E5" stroke="none" d="
M 760.8 630.55
L 754.9 624.65 772.6 601.9 756.6 587.6 735.05 609.1 727.95 603.6 695.15 653.25 670.75 653.25 623.6 718.9 531 718.9 531 696.2 506.55 686.95 506.55 612.85 521.7 583.4 531 583.4 531.8 574.1 563.8 574.1 563.8 596.15 598.35 596.85 599.15 574.1 610.1 574.1 610.1 557.3 599.15 547.2 531.8 547.2 531 531.2 519.2 531.2 476.25 539.6 476.25 718.9 472.05 718.9 466.15 770.75 712 770.75 695.15 718.9 760.8 630.55 Z"/>
</g>

<g id="Layer0_0_MEMBER_0_MEMBER_0_MEMBER_0_MEMBER_1_FILL">
<path fill="#000000" stroke="none" d="
M 784.45 585.85
L 796.5 571 783.05 558.95 769.8 573.8 769.8 578.4 759.2 589.95 769.8 599.4 780.3 586.75 784.45 585.85 Z"/>
</g>

<g id="Layer0_0_MEMBER_0_MEMBER_0_MEMBER_0_MEMBER_2_FILL">
<path fill="#000000" stroke="none" d="
M 596.4 596.8
L 567.75 596.25 567.75 639.7 571.9 644.8 593.2 644.8 596.4 639.7 596.4 596.8 Z"/>
</g>

<g id="Layer0_0_MEMBER_0_MEMBER_0_MEMBER_0_MEMBER_3_FILL">
<path fill="#E5E5E5" stroke="none" d="
M 630.7 626.65
L 630.7 615.4 561.15 615.4 561.15 626.65 630.7 626.65 Z"/>
</g>

<g id="Layer0_0_MEMBER_0_MEMBER_0_MEMBER_0_MEMBER_4_FILL">
<path fill="#E5E5E5" stroke="none" d="
M 506.55 675.5
L 506.55 686.95 528.55 695.25 528.55 675.5 506.55 675.5 Z"/>
</g>

<g id="Layer0_0_MEMBER_0_MEMBER_0_MEMBER_0_MEMBER_5_FILL">
<path fill="#E5E5E5" stroke="none" d="
M 636 676.95
L 636 701.65 653.7 676.95 636 676.95 Z"/>
</g>

<g id="Layer0_0_MEMBER_0_MEMBER_0_MEMBER_0_MEMBER_6_FILL">
<path fill="#000000" stroke="none" d="
M 650.95 676.95
L 650.85 668.6 518.5 668.6 518.5 676.95 570.2 676.95 570.2 673.65 595.05 673.8 595.05 676.95 650.95 676.95 Z"/>
</g>

<g id="Layer0_0_MEMBER_0_MEMBER_0_MEMBER_0_MEMBER_7_FILL">
<path fill="#000000" stroke="none" d="
M 567.75 718.9
L 601.75 718.9 601.75 713.25 567.75 703.05 567.75 718.9 Z"/>
</g>

<g id="Layer0_0_MEMBER_0_MEMBER_0_MEMBER_0_MEMBER_8_MEMBER_0_FILL">
<path fill="#919090" stroke="none" d="
M 603.25 706.25
Q 598.9 698.35 591.25 695.05 584.05 691.9 576.05 693.55 568.1 695.15 562.2 701.05
L 606.25 714.35
Q 605.55 710.5 603.25 706.25 Z"/>
</g>

<g id="Layer0_0_MEMBER_0_MEMBER_0_MEMBER_0_MEMBER_9_FILL">
<path fill="#000000" stroke="none" d="
M 600.4 689.55
L 597.9 689.55 591.9 696.4 601 703.25 606.25 696.85 606.25 694.6 600.4 689.55 Z"/>
</g>

<g id="Layer0_0_MEMBER_0_MEMBER_0_MEMBER_0_MEMBER_10_FILL">
<path fill="#DBDBDB" stroke="none" d="
M 579.85 679.75
L 577.5 681.9 577.5 694.55 590 694.55 590 681.9 587.4 679.75 579.85 679.75 Z"/>
</g>

<g id="Layer0_0_MEMBER_0_MEMBER_0_MEMBER_0_MEMBER_11_FILL">
<path fill="#000000" stroke="none" d="
M 564.05 696.25
L 566.4 699.05 575.5 694.55 572.9 690.7 564.05 696.25 Z"/>
</g>

<g id="Layer0_0_MEMBER_0_MEMBER_0_MEMBER_0_MEMBER_12_FILL">
<path fill="#DBDBDB" stroke="none" d="
M 760.8 630.55
L 727.95 603.6 752.95 629 717.75 688.45 760.8 630.55 Z"/>
</g>

<g id="FlashAICB_4_Layer_1__Rectangle__0_Layer0_0_FILL">
<path fill="#8FC5FA" stroke="none" d="
M 0 0
L 0 3.1 22.45 3.1 22.45 0 0 0 Z"/>
</g>

<g id="FlashAICB_4_Layer_1__Path__1_0_Layer0_0_MEMBER_0_FILL">
<path fill="#DAD7F6" stroke="none" d="
M 23 5.55
Q 23.15 5.55 23.3 5.4 23.4 5.25 23.4 5.1
L 23.4 2.5
Q 23.4 0.1 23.1 0.1 22.85 0.1 22.85 2.5 22.85 3.5 22 4.2 21.15 4.9 20 4.9
L 3.5 4.9
Q 2.35 4.9 1.5 4.2 0.65 3.5 0.65 2.5 0.65 0.1 0.4 0.1 0.1 0.1 0.1 2.85 0.1 5.55 0.25 5.55
L 23 5.55 Z"/>
</g>

<g id="FlashAICB_4_Layer_1__Path__0_Layer0_0_MEMBER_0_FILL">
<path fill="#DAD7F6" stroke="none" d="
M 24.2 5.6
Q 24.5 5.6 24.5 2.85 24.5 0.15 24.35 0.15
L 0.5 0.15
Q 0.35 0.15 0.25 0.3 0.1 0.45 0.1 0.55
L 0.1 3.2
Q 0.1 5.6 0.4 5.6 0.7 5.6 0.7 3.2 0.7 2.2 1.55 1.5 2.35 0.8 3.55 0.8
L 21.05 0.8
Q 22.2 0.8 23.05 1.5 23.9 2.2 23.9 3.2 23.9 5.6 24.2 5.6 Z"/>
</g>

<g id="Layer0_0_MEMBER_0_MEMBER_1_MEMBER_0_FILL">
<path fill="#DADADA" stroke="none" d="
M 588.45 692.65
L 589.4 692.65 589.4 682.7 588.45 682.9 588.45 692.65 Z"/>
</g>

<g id="Layer0_0_MEMBER_0_MEMBER_1_MEMBER_1_FILL">
<path fill="#EDEDED" stroke="none" d="
M 588.45 682.95
L 586.45 683.3 586.45 694 588.45 694 588.45 682.95 Z"/>
</g>

<g id="Layer0_0_MEMBER_0_MEMBER_1_MEMBER_2_FILL">
<path fill="#DADADA" stroke="none" d="
M 588.45 682.7
L 589.4 682.5 585.4 680 585.2 680 588.45 682.7 Z"/>
</g>

<g id="Layer0_0_MEMBER_0_MEMBER_1_MEMBER_3_FILL">
<path fill="#EDEDED" stroke="none" d="
M 586.45 683.05
L 588.45 682.7 585.2 680 584.95 680.05 586.45 683.05 Z"/>
</g>

<g id="Layer0_0_MEMBER_1_FILL">
<path fill="#F2F2F2" stroke="none" d="
M 599.15 574.1
L 592.65 574.1 592.65 596.25 598.35 596.85 599.15 574.1 Z"/>
</g>

<g id="Layer0_0_MEMBER_2_FILL">
<path fill="#F2F2F2" stroke="none" d="
M 703.55 770.75
L 712 770.75 695.15 718.9 703.55 770.75 Z"/>
</g>

<g id="Layer0_0_MEMBER_3_FILL">
<path fill="#F2F2F2" stroke="none" d="
M 531 718.9
L 531 696.2 528.55 695.25 526.7 718.9 531 718.9 Z"/>
</g>

<g id="Layer0_0_MEMBER_4_FILL">
<path fill="#F2F2F2" stroke="none" d="
M 630.7 615.4
L 625.45 615.4 625.45 626 630.7 626.65 630.7 615.4 Z"/>
</g>

<g id="Layer0_0_MEMBER_5_FILL">
<path fill="#F2F2F2" stroke="none" d="
M 531 531.2
L 526.7 531.2 526.7 581.1 531 583.4 531.8 574.1 531.8 547.2 531 531.2 Z"/>
</g>

<g id="Layer0_0_MEMBER_6_FILL">
<path fill="#F2F2F2" stroke="none" d="
M 501.65 686.95
L 506.55 686.95 506.55 612.85 521.7 583.4 501.65 611.35 501.65 686.95 Z"/>
</g>

<g id="Layer0_0_MEMBER_7_FILL">
<path fill="#F2F2F2" stroke="none" d="
M 599.15 547.2
L 604.65 560.65 604.65 574.1 610.1 574.1 610.1 557.3 599.15 547.2 Z"/>
</g>

<g id="Layer0_0_MEMBER_8_FILL">
<path fill="#F2F2F2" stroke="none" d="
M 795.55 570.15
L 794.4 569.1 783 583 779 585.95 784 583.95 795.55 570.15 Z"/>
</g>

<g id="Layer0_0_MEMBER_9_FILL">
<path fill="#F2F2F2" stroke="none" d="
M 571.85 596.25
L 569.35 596.25 569.35 615.4 571.85 615.4 571.85 596.25 Z"/>
</g>

<g id="Layer0_0_MEMBER_10_FILL">
<path fill="#F2F2F2" stroke="none" d="
M 570.6 626.65
L 569.35 626.65 569.35 639.35 571.9 644.8 570.6 639.35 570.6 626.65 Z"/>
</g>

<g id="Layer0_0_MEMBER_11_FILL">
<path fill="#EDEDED" stroke="none" d="
M 571.9 691.3
L 571 691.9 573.45 695.55 574.4 695.1 571.9 691.3 Z"/>
</g>

<g id="Layer0_0_MEMBER_12_FILL">
<path fill="#EDEDED" stroke="none" d="
M 599.05 701.8
L 600 702.45 605.3 696.4 605.3 693.75 604.5 695.55 599.05 701.8 Z"/>
</g>

<path id="Layer0_0_MEMBER_0_MEMBER_0_MEMBER_0_MEMBER_0_1_STROKES" stroke="#1D1D1B" stroke-width="0.25" stroke-linejoin="miter" stroke-linecap="butt" stroke-miterlimit="10" fill="none" d="
M 695.15 718.9
L 760.8 630.55 754.9 624.65 772.6 601.9 756.6 587.6 735.05 609.1 727.95 603.6 695.15 653.25 670.75 653.25 623.6 718.9 531 718.9 531 696.2 506.55 686.95 506.55 612.85 521.7 583.4 531 583.4 531.8 574.1 563.8 574.1 563.8 596.15 598.35 596.85 599.15 574.1 610.1 574.1 610.1 557.3 599.15 547.2 531.8 547.2 531 531.2 519.2 531.2 476.25 539.6 476.25 718.9 472.05 718.9 466.15 770.75 712 770.75 695.15 718.9 Z"/>

<path id="Layer0_0_MEMBER_0_MEMBER_0_MEMBER_0_MEMBER_1_1_STROKES" stroke="#1D1D1B" stroke-width="0.25" stroke-linejoin="miter" stroke-linecap="butt" stroke-miterlimit="10" fill="none" d="
M 796.5 571
L 783.05 558.95 769.8 573.8 769.8 578.4 759.2 589.95 769.8 599.4 780.3 586.75 784.45 585.85 796.5 571 Z"/>

<path id="Layer0_0_MEMBER_0_MEMBER_0_MEMBER_0_MEMBER_2_1_STROKES" stroke="#1D1D1B" stroke-width="0.25" stroke-linejoin="miter" stroke-linecap="butt" stroke-miterlimit="10" fill="none" d="
M 596.4 596.8
L 596.4 639.7 593.2 644.8 571.9 644.8 567.75 639.7 567.75 596.25 596.4 596.8 Z"/>

<path id="Layer0_0_MEMBER_0_MEMBER_0_MEMBER_0_MEMBER_3_1_STROKES" stroke="#1D1D1B" stroke-width="0.25" stroke-linejoin="miter" stroke-linecap="butt" stroke-miterlimit="10" fill="none" d="
M 630.7 615.4
L 630.7 626.65 561.15 626.65 561.15 615.4 630.7 615.4 Z"/>

<path id="Layer0_0_MEMBER_0_MEMBER_0_MEMBER_0_MEMBER_4_1_STROKES" stroke="#1D1D1B" stroke-width="0.25" stroke-linejoin="miter" stroke-linecap="butt" stroke-miterlimit="10" fill="none" d="
M 528.55 695.25
L 528.55 675.5 506.55 675.5 506.55 686.95 528.55 695.25 Z"/>

<path id="Layer0_0_MEMBER_0_MEMBER_0_MEMBER_0_MEMBER_5_1_STROKES" stroke="#1D1D1B" stroke-width="0.25" stroke-linejoin="miter" stroke-linecap="butt" stroke-miterlimit="10" fill="none" d="
M 636 701.65
L 636 676.95 653.7 676.95 636 701.65 Z"/>

<path id="Layer0_0_MEMBER_0_MEMBER_0_MEMBER_0_MEMBER_6_1_STROKES" stroke="#1D1D1B" stroke-width="0.25" stroke-linejoin="miter" stroke-linecap="butt" stroke-miterlimit="10" fill="none" d="
M 650.85 668.6
L 650.95 676.95 595.05 676.95 595.05 673.8 570.2 673.65 570.2 676.95 518.5 676.95 518.5 668.6 650.85 668.6 Z"/>

<path id="Layer0_0_MEMBER_0_MEMBER_0_MEMBER_0_MEMBER_7_1_STROKES" stroke="#1D1D1B" stroke-width="0.25" stroke-linejoin="miter" stroke-linecap="butt" stroke-miterlimit="10" fill="none" d="
M 601.75 718.9
L 601.75 713.25 567.75 703.05 567.75 718.9 601.75 718.9 Z"/>

<path id="Layer0_0_MEMBER_0_MEMBER_0_MEMBER_0_MEMBER_8_MEMBER_1_1_STROKES" stroke="#1D1D1B" stroke-width="0.25" stroke-linejoin="miter" stroke-linecap="butt" stroke-miterlimit="10" fill="none" d="
M 606.25 714.35
Q 605.55 710.5 603.25 706.25 598.9 698.35 591.25 695.05 584.05 691.9 576.05 693.55 568.1 695.15 562.2 701.05"/>

<path id="Layer0_0_MEMBER_0_MEMBER_0_MEMBER_0_MEMBER_9_1_STROKES" stroke="#1D1D1B" stroke-width="0.25" stroke-linejoin="miter" stroke-linecap="butt" stroke-miterlimit="10" fill="none" d="
M 601 703.25
L 606.25 696.85 606.25 694.6 600.4 689.55 597.9 689.55 591.9 696.4 601 703.25 Z"/>

<path id="Layer0_0_MEMBER_0_MEMBER_0_MEMBER_0_MEMBER_10_1_STROKES" stroke="#1D1D1B" stroke-width="0.25" stroke-linejoin="miter" stroke-linecap="butt" stroke-miterlimit="10" fill="none" d="
M 590 694.55
L 590 681.9 587.4 679.75 579.85 679.75 577.5 681.9 577.5 694.55 590 694.55 Z"/>

<path id="Layer0_0_MEMBER_0_MEMBER_0_MEMBER_0_MEMBER_11_1_STROKES" stroke="#1D1D1B" stroke-width="0.25" stroke-linejoin="miter" stroke-linecap="butt" stroke-miterlimit="10" fill="none" d="
M 575.5 694.55
L 572.9 690.7 564.05 696.25 566.4 699.05 575.5 694.55 Z"/>

<path id="FlashAICB_4_Layer_1__Path__1_0_Layer0_0_MEMBER_1_1_STROKES" stroke="#000000" stroke-width="0.25" stroke-linejoin="miter" stroke-linecap="butt" stroke-miterlimit="10" fill="none" d="
M 0.4 0.1
Q 0.65 0.1 0.65 2.5 0.65 3.5 1.5 4.2 2.35 4.9 3.5 4.9
L 20 4.9
Q 21.15 4.9 22 4.2 22.85 3.5 22.85 2.5 22.85 0.1 23.1 0.1 23.4 0.1 23.4 2.5
L 23.4 5.1
Q 23.4 5.25 23.3 5.4 23.15 5.55 23 5.55
L 0.25 5.55
Q 0.1 5.55 0.1 2.85 0.1 0.1 0.4 0.1 Z"/>

<path id="FlashAICB_4_Layer_1__Path__0_Layer0_0_MEMBER_1_1_STROKES" stroke="#000000" stroke-width="0.25" stroke-linejoin="miter" stroke-linecap="butt" stroke-miterlimit="10" fill="none" d="
M 24.2 5.6
Q 23.9 5.6 23.9 3.2 23.9 2.2 23.05 1.5 22.2 0.8 21.05 0.8
L 3.55 0.8
Q 2.35 0.8 1.55 1.5 0.7 2.2 0.7 3.2 0.7 5.6 0.4 5.6 0.1 5.6 0.1 3.2
L 0.1 0.55
Q 0.1 0.45 0.25 0.3 0.35 0.15 0.5 0.15
L 24.35 0.15
Q 24.5 0.15 24.5 2.85 24.5 5.6 24.2 5.6 Z"/>
</defs>

<g transform="matrix( 1.0688934326171875, 0, 0, 1, 501.9,583.6) ">
<mask id="Mask_Mask_1">
<g transform="matrix( 1, 0, 0, 1, 0,0) ">
<use xlink:href="#Mask_FlashAICB_1_Layer_1__Clip_Group__0_2_MASK_0_FILL"/>
</g>
</mask>

<g mask="url(#Mask_Mask_1)">
<g transform="matrix( 1, 0, 0, 1, 0,0) ">
<use xlink:href="#FlashAICB_1_Layer_1__Clip_Group__0_Layer2_0_FILL"/>
</g>
</g>
</g>

<g transform="matrix( 1, 0, 0, 1, 216.05,267) ">
<g transform="matrix( 1, 0, 0, 1, 0,0) ">
<use filter="url(#Filter_1)" xlink:href="#FlashAICB_Layer_1__Path__1_0_Layer0_0_FILL"/>
</g>
</g>

<g transform="matrix( 1, 0, 0, 1, 232.9,267) ">
<g transform="matrix( 1, 0, 0, 1, 0,0) ">
<use filter="url(#Filter_2)" xlink:href="#FlashAICB_Layer_1__Path__0_Layer0_0_FILL"/>
</g>
</g>

<g transform="matrix( 1, 0, 0, 1, -348.25,-406.95) ">
<use xlink:href="#Layer0_0_MEMBER_0_MEMBER_0_MEMBER_0_MEMBER_0_FILL"/>

<use xlink:href="#Layer0_0_MEMBER_0_MEMBER_0_MEMBER_0_MEMBER_0_1_STROKES"/>
</g>

<g transform="matrix( 1, 0, 0, 1, -348.25,-406.95) ">
<use xlink:href="#Layer0_0_MEMBER_0_MEMBER_0_MEMBER_0_MEMBER_1_FILL"/>

<use xlink:href="#Layer0_0_MEMBER_0_MEMBER_0_MEMBER_0_MEMBER_1_1_STROKES"/>
</g>

<g transform="matrix( 1, 0, 0, 1, -348.25,-406.95) ">
<use xlink:href="#Layer0_0_MEMBER_0_MEMBER_0_MEMBER_0_MEMBER_2_FILL"/>

<use xlink:href="#Layer0_0_MEMBER_0_MEMBER_0_MEMBER_0_MEMBER_2_1_STROKES"/>
</g>

<g transform="matrix( 1, 0, 0, 1, -348.25,-406.95) ">
<use xlink:href="#Layer0_0_MEMBER_0_MEMBER_0_MEMBER_0_MEMBER_3_FILL"/>

<use xlink:href="#Layer0_0_MEMBER_0_MEMBER_0_MEMBER_0_MEMBER_3_1_STROKES"/>
</g>

<g transform="matrix( 1, 0, 0, 1, -348.25,-406.95) ">
<use xlink:href="#Layer0_0_MEMBER_0_MEMBER_0_MEMBER_0_MEMBER_4_FILL"/>

<use xlink:href="#Layer0_0_MEMBER_0_MEMBER_0_MEMBER_0_MEMBER_4_1_STROKES"/>
</g>

<g transform="matrix( 1, 0, 0, 1, -348.25,-406.95) ">
<use xlink:href="#Layer0_0_MEMBER_0_MEMBER_0_MEMBER_0_MEMBER_5_FILL"/>

<use xlink:href="#Layer0_0_MEMBER_0_MEMBER_0_MEMBER_0_MEMBER_5_1_STROKES"/>
</g>

<g transform="matrix( 1, 0, 0, 1, -348.25,-406.95) ">
<use xlink:href="#Layer0_0_MEMBER_0_MEMBER_0_MEMBER_0_MEMBER_6_FILL"/>

<use xlink:href="#Layer0_0_MEMBER_0_MEMBER_0_MEMBER_0_MEMBER_6_1_STROKES"/>
</g>

<g transform="matrix( 1, 0, 0, 1, -348.25,-406.95) ">
<use xlink:href="#Layer0_0_MEMBER_0_MEMBER_0_MEMBER_0_MEMBER_7_FILL"/>

<use xlink:href="#Layer0_0_MEMBER_0_MEMBER_0_MEMBER_0_MEMBER_7_1_STROKES"/>
</g>

<g transform="matrix( 1, 0, 0, 1, -348.25,-406.95) ">
<use xlink:href="#Layer0_0_MEMBER_0_MEMBER_0_MEMBER_0_MEMBER_8_MEMBER_0_FILL"/>
</g>

<g transform="matrix( 1, 0, 0, 1, -348.25,-406.95) ">
<use xlink:href="#Layer0_0_MEMBER_0_MEMBER_0_MEMBER_0_MEMBER_8_MEMBER_1_1_STROKES"/>
</g>

<g transform="matrix( 1, 0, 0, 1, -348.25,-406.95) ">
<use xlink:href="#Layer0_0_MEMBER_0_MEMBER_0_MEMBER_0_MEMBER_9_FILL"/>

<use xlink:href="#Layer0_0_MEMBER_0_MEMBER_0_MEMBER_0_MEMBER_9_1_STROKES"/>
</g>

<g transform="matrix( 1, 0, 0, 1, -348.25,-406.95) ">
<use xlink:href="#Layer0_0_MEMBER_0_MEMBER_0_MEMBER_0_MEMBER_10_FILL"/>

<use xlink:href="#Layer0_0_MEMBER_0_MEMBER_0_MEMBER_0_MEMBER_10_1_STROKES"/>
</g>

<g transform="matrix( 1, 0, 0, 1, -348.25,-406.95) ">
<use xlink:href="#Layer0_0_MEMBER_0_MEMBER_0_MEMBER_0_MEMBER_11_FILL"/>

<use xlink:href="#Layer0_0_MEMBER_0_MEMBER_0_MEMBER_0_MEMBER_11_1_STROKES"/>
</g>

<g transform="matrix( 1, 0, 0, 1, -348.25,-406.95) ">
<use xlink:href="#Layer0_0_MEMBER_0_MEMBER_0_MEMBER_0_MEMBER_12_FILL"/>
</g>

<g transform="matrix( 1, 0, 0, 1, 221.5,258.15) ">
<g transform="matrix( 1, 0, 0, 1, 0,0) ">
<use filter="url(#Filter_3)" xlink:href="#FlashAICB_4_Layer_1__Rectangle__0_Layer0_0_FILL"/>
</g>
</g>

<g transform="matrix( 1, 0, 0, 1, 221,256.1) ">
<g transform="matrix( 1, 0, 0, 1, 0,0) ">
<use filter="url(#Filter_4)" xlink:href="#FlashAICB_4_Layer_1__Path__1_0_Layer0_0_MEMBER_0_FILL"/>
</g>

<g transform="matrix( 1, 0, 0, 1, 0,0) ">
<use filter="url(#Filter_4)" xlink:href="#FlashAICB_4_Layer_1__Path__1_0_Layer0_0_MEMBER_1_1_STROKES"/>
</g>
</g>

<g transform="matrix( 1, 0, 0, 1, 220.45,254.4) ">
<g transform="matrix( 1, 0, 0, 1, 0,0) ">
<use filter="url(#Filter_4)" xlink:href="#FlashAICB_4_Layer_1__Path__0_Layer0_0_MEMBER_0_FILL"/>
</g>

<g transform="matrix( 1, 0, 0, 1, 0,0) ">
<use filter="url(#Filter_4)" xlink:href="#FlashAICB_4_Layer_1__Path__0_Layer0_0_MEMBER_1_1_STROKES"/>
</g>
</g>

<g transform="matrix( 1, 0, 0, 1, -348.25,-406.95) ">
<use xlink:href="#Layer0_0_MEMBER_0_MEMBER_1_MEMBER_0_FILL"/>
</g>

<g transform="matrix( 1, 0, 0, 1, -348.25,-406.95) ">
<use xlink:href="#Layer0_0_MEMBER_0_MEMBER_1_MEMBER_1_FILL"/>
</g>

<g transform="matrix( 1, 0, 0, 1, -348.25,-406.95) ">
<use xlink:href="#Layer0_0_MEMBER_0_MEMBER_1_MEMBER_2_FILL"/>
</g>

<g transform="matrix( 1, 0, 0, 1, -348.25,-406.95) ">
<use xlink:href="#Layer0_0_MEMBER_0_MEMBER_1_MEMBER_3_FILL"/>
</g>

<g transform="matrix( 1, 0, 0, 1, -348.25,-406.95) ">
<use xlink:href="#Layer0_0_MEMBER_1_FILL"/>
</g>

<g transform="matrix( 1, 0, 0, 1, -348.25,-406.95) ">
<use xlink:href="#Layer0_0_MEMBER_2_FILL"/>
</g>

<g transform="matrix( 1, 0, 0, 1, -348.25,-406.95) ">
<use xlink:href="#Layer0_0_MEMBER_3_FILL"/>
</g>

<g transform="matrix( 1, 0, 0, 1, -348.25,-406.95) ">
<use xlink:href="#Layer0_0_MEMBER_4_FILL"/>
</g>

<g transform="matrix( 1, 0, 0, 1, -348.25,-406.95) ">
<use xlink:href="#Layer0_0_MEMBER_5_FILL"/>
</g>

<g transform="matrix( 1, 0, 0, 1, -348.25,-406.95) ">
<use xlink:href="#Layer0_0_MEMBER_6_FILL"/>
</g>

<g transform="matrix( 1, 0, 0, 1, -348.25,-406.95) ">
<use xlink:href="#Layer0_0_MEMBER_7_FILL"/>
</g>

<g transform="matrix( 1, 0, 0, 1, -348.25,-406.95) ">
<use xlink:href="#Layer0_0_MEMBER_8_FILL"/>
</g>

<g transform="matrix( 1, 0, 0, 1, -348.25,-406.95) ">
<use xlink:href="#Layer0_0_MEMBER_9_FILL"/>
</g>

<g transform="matrix( 1, 0, 0, 1, -348.25,-406.95) ">
<use xlink:href="#Layer0_0_MEMBER_10_FILL"/>
</g>

<g transform="matrix( 1, 0, 0, 1, -348.25,-406.95) ">
<use xlink:href="#Layer0_0_MEMBER_11_FILL"/>
</g>

<g transform="matrix( 1, 0, 0, 1, -348.25,-406.95) ">
<use xlink:href="#Layer0_0_MEMBER_12_FILL"/>
</g>
</svg>
